<?xml version="1.0" encoding="utf-8"?>
<!-- Generator: Adobe Illustrator 23.0.3, SVG Export Plug-In . SVG Version: 6.00 Build 0)  -->
<svg version="1.1" id="Layer_1" xmlns="http://www.w3.org/2000/svg" xmlns:xlink="http://www.w3.org/1999/xlink" x="0px" y="0px"
	 viewBox="0 0 24 24" style="enable-background:new 0 0 24 24;" xml:space="preserve">
<path d="M2,22l1.7-4L6,20.3L2,22z M20.3,6.1l-2.5-2.4l-13,13.1l2.4,2.4L20.3,6.1z M22.6,3.1l-1.7-1.7c-0.1-0.1-0.2-0.1-0.4-0.1
	c-0.2,0-0.3,0.1-0.4,0.2L19,2.7l2.4,2.4l1.2-1.2C22.8,3.7,22.8,3.4,22.6,3.1z"/>
<path d="M21.8,22h-8.5c-0.5,0-1-0.4-1-1v-5.2c0-0.5,0.4-1,1-1h0.3v-0.7h2.6v0.7h0.7c0-0.4,0.3-0.7,0.7-0.7h3.3
	c0.4,0,0.7,0.3,0.7,0.7h0.3c0.5,0,1,0.4,1,1V21C22.8,21.6,22.3,22,21.8,22z M13.3,15.5c-0.2,0-0.3,0.1-0.3,0.3V21
	c0,0.2,0.1,0.3,0.3,0.3h8.5c0.2,0,0.3-0.1,0.3-0.3v-5.2c0-0.2-0.1-0.3-0.3-0.3h-0.3c-0.4,0-0.7-0.3-0.7-0.7h-3.3
	c0,0.4-0.3,0.7-0.7,0.7h-1.3v-0.7h-1.3v0.7H13.3z M19.2,16.1c-1.3,0-2.3,1-2.3,2.3c0,1.3,1,2.3,2.3,2.3c1.3,0,2.3-1,2.3-2.3
	C21.5,17.1,20.4,16.1,19.2,16.1z M19.2,20.1c-0.9,0-1.7-0.8-1.7-1.7s0.8-1.7,1.7-1.7c0.9,0,1.7,0.8,1.7,1.7
	C20.9,19.3,20.1,20.1,19.2,20.1z M15.6,16.4v-0.3h-2v0.7h2V16.4z M21.8,22h-8.5c-0.5,0-1-0.4-1-1v-5.2c0-0.5,0.4-1,1-1h0.3v-0.7h2.6
	v0.7h0.7c0-0.4,0.3-0.7,0.7-0.7h3.3c0.4,0,0.7,0.3,0.7,0.7h0.3c0.5,0,1,0.4,1,1V21C22.8,21.6,22.3,22,21.8,22z M13.3,15.5
	c-0.2,0-0.3,0.1-0.3,0.3V21c0,0.2,0.1,0.3,0.3,0.3h8.5c0.2,0,0.3-0.1,0.3-0.3v-5.2c0-0.2-0.1-0.3-0.3-0.3h-0.3
	c-0.4,0-0.7-0.3-0.7-0.7h-3.3c0,0.4-0.3,0.7-0.7,0.7h-1.3v-0.7h-1.3v0.7H13.3z M19.2,16.1c-1.3,0-2.3,1-2.3,2.3c0,1.3,1,2.3,2.3,2.3
	c1.3,0,2.3-1,2.3-2.3C21.5,17.1,20.4,16.1,19.2,16.1z M19.2,20.1c-0.9,0-1.7-0.8-1.7-1.7s0.8-1.7,1.7-1.7c0.9,0,1.7,0.8,1.7,1.7
	C20.9,19.3,20.1,20.1,19.2,20.1z M15.6,16.4v-0.3h-2v0.7h2V16.4z"/>
</svg>
