<svg xmlns="http://www.w3.org/2000/svg" viewBox="0 0 32 32"><path d="M7 14a21.93 21.93 0 0 1 8-1.84v15.76c-2.76-.45-5.14-2.7-6.57-5.92H4.52L3 28H1c1.62-6.5 1.31-5.24 2-8h4.71a17.6 17.6 0 0 1-.64-4H1v-2zm18 0a21.93 21.93 0 0 0-8-1.84v15.76c2.76-.45 5.14-2.7 6.57-5.92h3.87l1.5 6H31c-1.62-6.5-1.31-5.24-2-8h-4.71a17.6 17.6 0 0 0 .64-4H31v-2zm-.6-4H29c.69-2.76.38-1.5 2-8h-2.06l-1.5 6h-3.77C22.1 4.33 19.27 2 16 2S9.9 4.33 8.33 8H4.52L3 2H1c1.62 6.5 1.31 5.24 2 8h4.64c-.11.42-.24.83-.32 1.28a24.06 24.06 0 0 1 17.36 0c-.08-.45-.21-.86-.32-1.28z" id="icons"/></svg>