<svg xmlns="http://www.w3.org/2000/svg" viewBox="0 0 24 24"><path d="M5 10.6a16.94 16.94 0 0 1 6-1.54v11.83A6.63 6.63 0 0 1 6.91 18H3.5l-.68 3h-2l.68-3 .45-2h3.89a12.33 12.33 0 0 1-.75-3H0v-2h5v-.4zM18.16 7h3.94l.45-2 .68-3h-2.05l-.68 3h-3.4A6.29 6.29 0 0 0 12 2a6.29 6.29 0 0 0-5.09 3H3.5l-.68-3h-2l.68 3 .4 2h3.94a9.78 9.78 0 0 0-.41 1.26A17.08 17.08 0 0 1 12 6.93a23.67 23.67 0 0 1 6.48 1c-.1-.35-.21-.64-.32-.93zM24 13v-2h-5v-.84A17.56 17.56 0 0 0 13 9v11.89A6.63 6.63 0 0 0 17.09 18h3.41l.68 3h2.05l-.68-3-.45-2h-3.94a12.33 12.33 0 0 0 .75-3z" id="icons"/></svg>