<?xml version="1.0" encoding="utf-8"?>
<!-- Generator: Adobe Illustrator 23.0.3, SVG Export Plug-In . SVG Version: 6.00 Build 0)  -->
<svg version="1.1" id="Layer_1" xmlns="http://www.w3.org/2000/svg" xmlns:xlink="http://www.w3.org/1999/xlink" x="0px" y="0px"
	 viewBox="0 0 32 32" style="enable-background:new 0 0 32 32;" xml:space="preserve">
<style type="text/css">
	.st0{fill:none;stroke:#000000;stroke-miterlimit:10;}
</style>
<path d="M9.4,6c0,0.8-0.7,1.5-1.5,1.5C7.1,7.5,6.4,6.8,6.4,6s0.7-1.5,1.5-1.5C8.7,4.5,9.4,5.2,9.4,6z"/>
<path class="st0" d="M11.3,16c0,1.9-1.5,3.4-3.4,3.4S4.5,17.9,4.5,16s1.5-3.4,3.4-3.4S11.3,14.1,11.3,16z"/>
<path class="st0" d="M11.3,6c0,1.9-1.5,3.4-3.4,3.4S4.5,7.9,4.5,6S6,2.6,7.9,2.6C9.8,2.6,11.3,4.1,11.3,6z"/>
<path class="st0" d="M11.3,26c0,1.9-1.5,3.4-3.4,3.4S4.5,27.9,4.5,26s1.5-3.4,3.4-3.4S11.3,24.1,11.3,26z"/>
<rect x="14.7" y="5.2" width="14" height="1.6"/>
<rect x="14.7" y="15.2" width="14" height="1.6"/>
<rect x="14.7" y="25.2" width="14" height="1.6"/>
</svg>
