<svg xmlns="http://www.w3.org/2000/svg" viewBox="0 0 24 24"><path d="M13.93 11.5A2.44 2.44 0 0 1 11.5 14a2.5 2.5 0 0 1 0-5 2.44 2.44 0 0 1 2.43 2.5zm2.16-4.59l-1.41 1.41a4.52 4.52 0 0 1 1.39 3.18 4.52 4.52 0 0 1-1.39 3.18l1.41 1.41a6.39 6.39 0 0 0 1.84-4.59 6.39 6.39 0 0 0-1.84-4.59zm-9.18 9.18l1.41-1.41a4.52 4.52 0 0 1-1.39-3.18 4.52 4.52 0 0 1 1.39-3.18L6.91 6.91a6.39 6.39 0 0 0-1.84 4.59 6.39 6.39 0 0 0 1.84 4.59zm-2.83 2.83l1.41-1.41a8.54 8.54 0 0 1-2.56-6 8.54 8.54 0 0 1 2.56-6L4.08 4.08a10.42 10.42 0 0 0-3 7.42 10.42 10.42 0 0 0 3 7.42zM18.92 4.08l-1.41 1.41a8.54 8.54 0 0 1 2.56 6 8.54 8.54 0 0 1-2.56 6l1.41 1.41a10.42 10.42 0 0 0 3-7.42 10.42 10.42 0 0 0-3-7.4z" id="icons"/></svg>