<svg xmlns="http://www.w3.org/2000/svg" viewBox="0 0 32 32"><path d="M18.93 15A2.94 2.94 0 0 1 16 18a3 3 0 0 1 0-6 2.94 2.94 0 0 1 2.93 3zM6.81 5.82L5.39 4.41A14.88 14.88 0 0 0 1.07 15 14.86 14.86 0 0 0 5.4 25.6l1.41-1.41A13.06 13.06 0 0 1 2.93 15a13 13 0 0 1 3.88-9.18zM26.6 4.4l-1.41 1.41A13.06 13.06 0 0 1 29.07 15a13 13 0 0 1-3.88 9.19l1.41 1.41a15 15 0 0 0 0-21.2zm-15.55 5.66L9.63 8.65A8.92 8.92 0 0 0 7.07 15a8.91 8.91 0 0 0 2.57 6.36L11.05 20a7.08 7.08 0 0 1-2.12-5 7 7 0 0 1 2.12-4.94zm9.9 0A7.08 7.08 0 0 1 23.07 15a7 7 0 0 1-2.13 5l1.42 1.41a9 9 0 0 0 0-12.72z" id="icons"/></svg>