<svg xmlns="http://www.w3.org/2000/svg" viewBox="0 0 32 32"><path d="M15 .17A14.83 14.83 0 1 0 29.83 15 14.83 14.83 0 0 0 15 .17zM14 28A13.06 13.06 0 0 1 2 16h6.1a7 7 0 0 0 5.9 5.92zm0-8.12A5 5 0 0 1 10.1 16H14zM14 14h-3.9a5 5 0 0 1 3.9-3.9zm0-5.92A7 7 0 0 0 8.08 14H2A13.06 13.06 0 0 1 14 2zM16 2a13.06 13.06 0 0 1 12 12h-6.1A7 7 0 0 0 16 8.08zm0 8.12A5 5 0 0 1 19.9 14H16zm0 5.83h3.9a5.09 5.09 0 0 1-3.9 4zM16 28v-6.1a7.08 7.08 0 0 0 5.92-6H28A13.12 13.12 0 0 1 16 28zm4-20a2 2 0 1 1 2-2 2 2 0 0 1-2 2zM6 8a2 2 0 1 1-2 2 2 2 0 0 1 2-2zm16 12a2 2 0 1 1-2 2 2 2 0 0 1 2-2zm-12 2a2 2 0 1 1-2 2 2 2 0 0 1 2-2z" id="icons"/></svg>