<svg xmlns="http://www.w3.org/2000/svg" viewBox="0 0 24 24"><path d="M11 .08A10.92 10.92 0 1 0 21.92 11 10.92 10.92 0 0 0 11 .08zM10 20a9.1 9.1 0 0 1-8-8h3.17A5.91 5.91 0 0 0 10 16.83zm0-5.08A4.09 4.09 0 0 1 7.06 12H10zM10 10H7.06A4.09 4.09 0 0 1 10 7.06zm0-4.83A5.91 5.91 0 0 0 5.17 10H2a9.1 9.1 0 0 1 8-8zM12 2a9.1 9.1 0 0 1 8 8h-3.17A5.91 5.91 0 0 0 12 5.17zm0 5.08A4.09 4.09 0 0 1 14.94 10H12zm0 4.87h2.94a4.18 4.18 0 0 1-2.94 3zM12 20v-3.17a6 6 0 0 0 4.83-4.9H20A9.17 9.17 0 0 1 12 20zm3-15a1 1 0 1 1 1-1 1 1 0 0 1-1 1zM5 6a1 1 0 1 1-1 1 1 1 0 0 1 1-1zm12 10a1 1 0 1 1-1-1 1 1 0 0 1 1 1zM7 16a1 1 0 1 1-1 1 1 1 0 0 1 1-1z" id="icons"/></svg>