<svg id="Layer_1" data-name="Layer 1" xmlns="http://www.w3.org/2000/svg" viewBox="0 0 147.62914 42.46358"><defs><style>.cls-1{fill:#fff;}</style></defs><title>Artboard 2</title><rect class="cls-1" x="89.60246" y="12.8265" width="4.4531" height="17.8174"/><path class="cls-1" d="M53.61416,25.6361a5.68282,5.68282,0,0,1-4.3262,1.8896,4.61949,4.61949,0,0,1-4.7905-4.2314H58.08387V22.0697c0-6.2007-3.37591-9.688-8.35451-9.688-5.3798,0-9.685,3.74709-9.685,9.353,0,5.6045,4.3052,9.3555,9.685,9.3555a9.25274,9.25274,0,0,0,6.6954-2.6436Zm-4.5137-9.916c2.7842,0,4.4922,1.6352,4.5313,4.2324h-9.1343A4.43177,4.43177,0,0,1,49.10046,15.7201Z"/><path class="cls-1" d="M64.29676,17.83779c0-1.33739,1.4112-1.89359,2.6006-1.89359a4.04041,4.04041,0,0,1,3.4756,1.8037l2.833-2.83011a7.81452,7.81452,0,0,0-6.1992-2.53609c-3.6006,0-7.165,1.7798-7.165,5.7534,0,6.794,9.6142,3.897,9.6142,7.5713,0,1.4102-1.6699,2.041-2.9687,2.041a5.438,5.438,0,0,1-4.2227-2.1797l-2.8769,2.876a8.75023,8.75023,0,0,0,6.8398,2.6465c3.6367,0,7.6855-1.48541,7.6855-5.7178C73.913,18.43,64.29676,21.0292,64.29676,17.83779Z"/><path class="cls-1" d="M87.34466,12.6376a5.75858,5.75858,0,0,0-1.582-.2559,5.67807,5.67807,0,0,0-5.2745,3.2632h-.07129V12.8265H75.96276V30.6439h4.45411V21.1024A4.47869,4.47869,0,0,1,85.205,16.6112a8.527,8.527,0,0,1,1.96591.2895Z"/><path class="cls-1" d="M97.22336,12.7377a1.152,1.152,0,1,1-1.1512,1.15311A1.15585,1.15585,0,0,1,97.22336,12.7377Zm0,2.10034a.94743.94743,0,1,0-.94682-.94723A.94682.94682,0,0,0,97.22336,14.838Zm-.44221-1.61332h.507c.31667,0,.464.14233.464.397a.3316.3316,0,0,1-.31427.36148l.34319.55691h-.2543l-.32833-.53854H97.023v.53854h-.24183Zm.24183.57288h.17547c.149,0,.31428-.00894.31428-.1872,0-.17626-.16532-.18561-.31428-.1817H97.023Z"/><path class="cls-1" d="M91.79187,3.8407a2.84932,2.84932,0,1,1-2.92181,2.8472A2.87413,2.87413,0,0,1,91.79187,3.8407Z"/><path class="cls-1" d="M119.3176,20.46668a2.45983,2.45983,0,0,1,.04545,1.00076,2.89429,2.89429,0,0,1-.325,1.00077,2.653,2.653,0,0,1-.62378.76353,2.74588,2.74588,0,0,1-.85464.48424,3.02887,3.02887,0,0,1-1.01691.16885,2.65222,2.65222,0,0,1-.97167-.16885,1.87153,1.87153,0,0,1-.71808-.48424,1.84427,1.84427,0,0,1-.40927-.76353,2.45609,2.45609,0,0,1-.04555-1.00077,2.85085,2.85085,0,0,1,.32824-1.00076,2.67321,2.67321,0,0,1,1.47832-1.24778,3.05743,3.05743,0,0,1,1.0203-.16906,2.62608,2.62608,0,0,1,.96827.16906,1.87917,1.87917,0,0,1,.71479.48425A1.84548,1.84548,0,0,1,119.3176,20.46668Zm-1.02349.40948a1.12277,1.12277,0,0,0-.22428-.47129,1.103,1.103,0,0,0-.40937-.3086,1.38793,1.38793,0,0,0-.57185-.11044,1.62816,1.62816,0,0,0-.60446.11044,1.57284,1.57284,0,0,0-.4938.3086,1.67261,1.67261,0,0,0-.35415.47129,1.8655,1.8655,0,0,0-.18531.59128,1.58837,1.58837,0,0,0,.01954.59447,1.17364,1.17364,0,0,0,.22428.4681,1.073,1.073,0,0,0,.40608.3086,1.38755,1.38755,0,0,0,.572.11065,1.62809,1.62809,0,0,0,.60424-.11065,1.57465,1.57465,0,0,0,.494-.3086,1.6897,1.6897,0,0,0,.35405-.4681,1.835,1.835,0,0,0,.1852-.59447A1.62517,1.62517,0,0,0,118.29411,20.87616Zm1.67064,2.89164h1.01372l.2469-1.79339h1.9171l.13636-.93578h-1.917l.13-.93577h2.0731l.12988-.936h-3.08673Z"/><polygon class="cls-1" points="115.79 6.163 114.477 6.163 114.601 5.266 118.24 5.266 118.116 6.163 116.804 6.163 116.284 9.867 115.27 9.867 115.79 6.163"/><polygon class="cls-1" points="121.425 9.867 122.439 9.867 123.082 5.266 122.068 5.266 121.828 6.981 119.859 6.981 120.099 5.266 119.085 5.266 118.442 9.867 119.456 9.867 119.735 7.878 121.704 7.878 121.425 9.867"/><polygon class="cls-1" points="126.978 8.931 124.749 8.931 124.879 7.995 126.874 7.995 127.004 7.059 125.009 7.059 125.133 6.202 127.245 6.202 127.375 5.266 124.249 5.266 123.605 9.867 126.848 9.867 126.978 8.931"/><path class="cls-1" d="M117.62594,14.9104a.86159.86159,0,0,0-.19167-.35087,1.09652,1.09652,0,0,0-.30881-.23065,2.89211,2.89211,0,0,0-.36712-.1561q-.18843-.06468-.37369-.117a1.93884,1.93884,0,0,1-.32495-.12021.57009.57009,0,0,1-.21441-.16884.34454.34454,0,0,1-.05532-.25678.42992.42992,0,0,1,.0977-.22088.61071.61071,0,0,1,.18509-.14634.908.908,0,0,1,.23076-.08113,1.14353,1.14353,0,0,1,.23384-.02591,1.122,1.122,0,0,1,.38994.07455.608.608,0,0,1,.30541.23086l.79942-.76034a1.434,1.434,0,0,0-.60126-.3704A2.46922,2.46922,0,0,0,116.024,12.194a2.0347,2.0347,0,0,0-.60445.2829,1.71786,1.71786,0,0,0-.45812.46768,1.54853,1.54853,0,0,0-.23713.6499,1.00448,1.00448,0,0,0,.07465.61741,1.01886,1.01886,0,0,0,.34768.37677,1.99742,1.99742,0,0,0,.48743.22747q.26632.08474.494.16906a1.29028,1.29028,0,0,1,.37359.20474.32979.32979,0,0,1,.11362.32814.4381.4381,0,0,1-.09408.21429.5983.5983,0,0,1-.18531.14952.96375.96375,0,0,1-.24042.08793,1.1631,1.1631,0,0,1-.25349.0291,1.00426,1.00426,0,0,1-.47107-.11363.88709.88709,0,0,1-.34768-.32176l-.83829.79284a1.75757,1.75757,0,0,0,.65628.44176,2.29671,2.29671,0,0,0,.81238.13656,2.63036,2.63036,0,0,0,.69195-.0909,1.92824,1.92824,0,0,0,.60445-.2795,1.6941,1.6941,0,0,0,.45494-.47447,1.61307,1.61307,0,0,0,.23713-.66923A1.19259,1.19259,0,0,0,117.62594,14.9104Z"/><path class="cls-1" d="M121.18108,15.8689a1.25789,1.25789,0,0,1-.57185.13,1.10842,1.10842,0,0,1-.49709-.11044,1.00462,1.00462,0,0,1-.37051-.30881,1.24582,1.24582,0,0,1-.20792-.46789,1.635,1.635,0,0,1-.01614-.59447,1.86,1.86,0,0,1,.1852-.59128,1.77155,1.77155,0,0,1,.34438-.47129,1.51483,1.51483,0,0,1,.4646-.3086,1.38,1.38,0,0,1,.54583-.11044,1.11155,1.11155,0,0,1,.48743.09749.86637.86637,0,0,1,.33153.27928l.87068-.63673a1.16869,1.16869,0,0,0-.28916-.31858,1.59336,1.59336,0,0,0-.36722-.20793,2.00582,2.00582,0,0,0-.39971-.11362,2.32294,2.32294,0,0,0-.3995-.0359,3.05649,3.05649,0,0,0-1.0203.16906,2.67288,2.67288,0,0,0-1.47843,1.24777,2.8516,2.8516,0,0,0-.32813,1.00077,2.45408,2.45408,0,0,0,.04545,1.00077,1.84319,1.84319,0,0,0,.40948.76353,1.8682,1.8682,0,0,0,.71808.48424,2.6506,2.6506,0,0,0,.97145.16884,2.47888,2.47888,0,0,0,.94873-.195,2.15972,2.15972,0,0,0,.82534-.60424l-.75376-.63036A1.34405,1.34405,0,0,1,121.18108,15.8689Z"/><polygon class="cls-1" points="124.681 12.217 123.667 12.217 123.024 16.818 124.038 16.818 124.681 12.217"/><polygon class="cls-1" points="128.564 15.882 126.335 15.882 126.465 14.946 128.461 14.946 128.59 14.01 126.595 14.01 126.719 13.153 128.831 13.153 128.961 12.217 125.835 12.217 125.192 16.818 128.435 16.818 128.564 15.882"/><polygon class="cls-1" points="133.8 16.818 134.443 12.217 133.429 12.217 132.981 15.414 132.968 15.414 131.46 12.217 130.083 12.217 129.439 16.818 130.453 16.818 130.908 13.542 130.921 13.542 132.474 16.818 133.8 16.818"/><path class="cls-1" d="M136.23707,13.926a1.7721,1.7721,0,0,1,.34449-.47129,1.513,1.513,0,0,1,.46449-.3086,1.38037,1.38037,0,0,1,.54583-.11044,1.11088,1.11088,0,0,1,.48743.09749.86566.86566,0,0,1,.33154.27928l.87078-.63673a1.16732,1.16732,0,0,0-.28927-.31858,1.59266,1.59266,0,0,0-.36711-.20793,2.006,2.006,0,0,0-.39971-.11362,2.32516,2.32516,0,0,0-.39961-.0359,3.05743,3.05743,0,0,0-1.0203.16906,2.67314,2.67314,0,0,0-1.47832,1.24777,2.84958,2.84958,0,0,0-.32814,1.00077,2.45626,2.45626,0,0,0,.04535,1.00077,1.8433,1.8433,0,0,0,.40948.76353,1.869,1.869,0,0,0,.71808.48424,2.65086,2.65086,0,0,0,.97156.16884,2.47971,2.47971,0,0,0,.94873-.195,2.16063,2.16063,0,0,0,.82534-.60424l-.75387-.63036a1.34313,1.34313,0,0,1-.44845.36382,1.2575,1.2575,0,0,1-.57175.13,1.10778,1.10778,0,0,1-.49709-.11044,1.00287,1.00287,0,0,1-.37051-.30881,1.246,1.246,0,0,1-.208-.46789,1.63767,1.63767,0,0,1-.01614-.59447A1.86,1.86,0,0,1,136.23707,13.926Z"/><polygon class="cls-1" points="143.249 13.153 143.38 12.217 140.254 12.217 139.61 16.818 142.853 16.818 142.983 15.882 140.754 15.882 140.884 14.946 142.879 14.946 143.009 14.01 141.014 14.01 141.138 13.153 143.249 13.153"/><polygon class="cls-1" points="118.689 29.147 118.676 29.147 118.143 26.119 117.201 26.119 115.823 29.069 115.81 29.069 115.492 26.119 114.387 26.119 115.109 30.72 115.979 30.72 117.435 27.536 117.448 27.536 118.02 30.72 118.923 30.72 120.912 26.119 119.885 26.119 118.689 29.147"/><polygon class="cls-1" points="124.441 27.834 122.472 27.834 122.713 26.119 121.699 26.119 121.055 30.72 122.069 30.72 122.349 28.731 124.318 28.731 124.038 30.72 125.052 30.72 125.695 26.119 124.681 26.119 124.441 27.834"/><polygon class="cls-1" points="126.219 30.72 129.462 30.72 129.592 29.784 127.363 29.784 127.493 28.848 129.488 28.848 129.618 27.912 127.623 27.912 127.746 27.055 129.858 27.055 129.988 26.119 126.862 26.119 126.219 30.72"/><path class="cls-1" d="M134.43049,27.51618a1.33863,1.33863,0,0,0-.04558-.67267.94268.94268,0,0,0-.31844-.42879,1.35112,1.35112,0,0,0-.52-.22749,2.98771,2.98771,0,0,0-.65628-.06837h-1.78073l-.64328,4.601h1.0139l.25348-1.83891h.50035l.70826,1.83891h1.21521l-.89677-1.94306a1.34566,1.34566,0,0,0,.79941-.43219A1.57554,1.57554,0,0,0,134.43049,27.51618Zm-1.17642.28586a.59476.59476,0,0,1-.22739.15272.979.979,0,0,1-.28257.05838q-.15278.00959-.28925.00959H131.857l.14283-1.04609h.66287a2.02838,2.02838,0,0,1,.27627.01939.73741.73741,0,0,1,.24368.07477.39871.39871,0,0,1,.16242.15932.43739.43739,0,0,1,.03249.27966A.5196.5196,0,0,1,133.25407,27.802Z"/><polygon class="cls-1" points="134.909 30.72 138.151 30.72 138.281 29.784 136.052 29.784 136.182 28.848 138.177 28.848 138.307 27.912 136.312 27.912 136.436 27.055 138.548 27.055 138.678 26.119 135.552 26.119 134.909 30.72"/><rect class="cls-1" x="105.57482" y="3.8407" width="0.75" height="28.213"/><path class="cls-1" d="M140.85872,26.05017a1.04088,1.04088,0,1,1-1.04019,1.04192A1.0444,1.0444,0,0,1,140.85872,26.05017Zm0,1.8978a.85606.85606,0,1,0-.85552-.85588A.85552.85552,0,0,0,140.85872,27.948Zm-.39957-1.45774h.45809c.28614,0,.41928.1286.41928.35874a.29962.29962,0,0,1-.284.32661l.31011.50321h-.22979l-.29667-.48661h-.15855v.48661h-.2185Zm.2185.51764h.15855c.1346,0,.284-.00808.284-.16915,0-.15927-.14938-.16771-.284-.16418h-.15855Z"/><path class="cls-1" d="M20.17176,6.433a11.91525,11.91525,0,0,0-3.0332.2973.56168.56168,0,0,0-.7358.5411.748.748,0,0,0,.2739.6425,22.92543,22.92543,0,0,1,2.8301,2.4512c-.5371.0591-1.1221.15769-1.7207.28169-.669-1.44629-2.8208-.13129-4.249-.07419-.1675.0069-.32819.0288-.4937.0401a23.2607,23.2607,0,0,1-.2407-3.3413,19.68846,19.68846,0,0,1,7.86621-1.8599l.42579-.0112c.3574-.003.3857-.2876.0498-.33351a15.49035,15.49035,0,0,0-8.3281,1.311A16.4911,16.4911,0,0,0,4.28657,15.3924c-.5073,1.4273-2.5381,8.232,1.0698,14.0728,2.9287,4.7402,6.7002,6.9951,11.313,7.63959,4.604.64161,7.102.085,10.0141-1.208,6.8091-3.02239,12.0088-14.36909,6.8077-22.59419C31.43836,9.5057,26.05946,6.1761,20.17176,6.433Zm-2.5844,5.31779a20.31393,20.31393,0,0,1,2.7021-.42179,18.0107,18.0107,0,0,1,2,2.9067c-.9214.4458-2.1489.78709-2.6484,1.5015a2.03824,2.03824,0,0,0-.26519,1.1377,26.99159,26.99159,0,0,0-4.43651,1.4716c-.5181-1.5239-.9726-3.0424-1.2856-4.396C15.13666,12.5355,16.87246,12.305,17.58736,11.75079Zm7.5634,18.16951c-.4057.0429-.809.0947-1.1635.1494a16.73252,16.73252,0,0,0-3.0713.8262,50.27225,50.27225,0,0,1-3.0523-5.0762,17.72011,17.72011,0,0,1,6.6079-1.6524,5.288,5.288,0,0,0,.7906,1.0938C26.12736,26.14679,24.75676,27.4154,25.15076,29.9203Zm-9.8437-10.45751a22.07824,22.07824,0,0,1,4.0737-1.47169,2.32822,2.32822,0,0,1-.209,1.0332,2.86212,2.86212,0,0,0,.1529,2.0307c.8637,1.2569,2.2978.5586,3.3774,1.01079a2.46792,2.46792,0,0,1,1.1021.95991,18.362,18.362,0,0,0-6.5279,1.6143A47.85089,47.85089,0,0,1,15.30706,19.46279Zm.9521,5.64891c-.08.03809-.166.0849-.2485.126-1.2607-.3516-2.0425-.54691-3.72559-.8926a3.53492,3.53492,0,0,0-2.4614.2012c-.1826.0527-.3579.10049-.5283.1513-.1704-.4365-.3394-.8887-.5098-1.375a31.027,31.027,0,0,1,5.51709-3.4155C14.87346,21.6136,15.69176,23.8929,16.25916,25.1117Zm.878,5.1816a10.85606,10.85606,0,0,0,.6919-2.1621c.6513,1.0957,1.4287,2.2871,2.0302,3.2197a19.83089,19.83089,0,0,0-3.0571,1.9288A12.8581,12.8581,0,0,1,17.13716,30.2933Zm6.1035-16.7466c-.0117.0166-.0322.0298-.0449.0459a26.38075,26.38075,0,0,0-1.5757-2.4155,25.06551,25.06551,0,0,1,3.86081.124C24.32076,11.7162,23.809,12.7352,23.24066,13.5467Zm-10.3296,1.2515c.021-.0293.0439-.0532.0654-.082.2671,1.3525.5869,2.4721,1.0132,4.0249A38.33066,38.33066,0,0,0,8.29627,22.142a19.66554,19.66554,0,0,1-.6738-2.2271,2.0273,2.0273,0,0,1,1.689-1.51611C10.71577,18.2582,11.92087,16.16879,12.91106,14.7982ZM6.72157,12.7577a18.26176,18.26176,0,0,1,5.4029-5.1714,30.00074,30.00074,0,0,0,.2495,3.081q-.97785.0975-1.9361.2413a13.82585,13.82585,0,0,0-3.5634,4.67719A17.07471,17.07471,0,0,1,6.72157,12.7577Zm-.9804,1.6445s.0708,1.2129.1294,2.0972a13.61563,13.61563,0,0,0-1.3492,1.8208A10.9092,10.9092,0,0,1,5.74117,14.4022Zm8.769,21.0034A14.44686,14.44686,0,0,1,5.228,25.9623a19.99461,19.99461,0,0,1-.7456-7.4063.74606.74606,0,0,0,.435.0191c.1543-.1055.7046-.4922,1.0957-.8326.0054.045.0142.1021.0205.1504a13.77856,13.77856,0,0,0-.4584,3.1006,22.04,22.04,0,0,1,1.4716,1.9522c-.3554.2636-1.0356.7343-1.1953.8486a.71921.71921,0,0,0-.1304,1.1611.64736.64736,0,0,0,.7007-.0117,12.21185,12.21185,0,0,1,1.2198-.87991c.1728.44921.3339.85451.4926,1.24121a1.53826,1.53826,0,0,0-.3921.9141c-.1538,1.3408,1.1202,2.3926,2.1954,2.7002.04.0117.0693.0156.1074.0264.0571.0859.1089.1679.1689.2558a6.57061,6.57061,0,0,0-1.1997,1.2158c-.1509.1973-.3218.4922-.1826.5508a2.42886,2.42886,0,0,0,.8218-.039c.5337-.1026.9453-.6934,1.3139-.9102a20.593,20.593,0,0,0,1.91259,2.1504c.0328.1367.063.2812.1006.4023a8.55056,8.55056,0,0,0,.5664,1.36819,13.9154,13.9154,0,0,0,1.6753.64161A9.54708,9.54708,0,0,0,14.51016,35.4056Zm1.1318.3574a4.9974,4.9974,0,0,1,.5782-.7158c.5346.3545,1.1079.7608,1.5649,1.0225A10.9825,10.9825,0,0,1,15.642,35.763Zm3.5616.3545a25.25867,25.25867,0,0,1-2.2984-1.6826,16.07158,16.07158,0,0,1,3.5791-2.16111c.4595.72171,1.97561,2.86821,2.583,3.56051A19.79666,19.79666,0,0,1,19.20356,36.1175Zm7.67231-1.7255a18.97865,18.97865,0,0,1-2.52241,1.12979,26.80856,26.80856,0,0,1-2.792-3.663,15.96553,15.96553,0,0,1,3.8291-.93949,8.58543,8.58543,0,0,0,.5078,1.252,2.88116,2.88116,0,0,0,.7422.97649c.0976-.06049.188-.13179.2842-.19429C26.91787,33.433,26.90466,33.9213,26.87587,34.392ZM26.49746,9.8177c-.3091-.1967-.6943-.1235-.5342.2212a4.66052,4.66052,0,0,0,.4888.586,22.35593,22.35593,0,0,0-5.5561-.417,17.87485,17.87485,0,0,0-3.274-3.1636c5.7198-.356,10.85791,2.0098,13.128,4.7891a17.65128,17.65128,0,0,0-3.0523-1.10161A6.81248,6.81248,0,0,0,26.49746,9.8177ZM27.75,33.9203c.0263-.4658.04591-1.0557.0605-1.5977a13.85928,13.85928,0,0,0,1.5669-1.416,14.21176,14.21176,0,0,1,1.6333.2734A12.61472,12.61472,0,0,1,27.75,33.9203Zm4.37591-4.2617a4.72838,4.72838,0,0,1-.72411,1.0234,11.18075,11.18075,0,0,0-1.4556-.4287c.0899-.1074.1871-.209.274-.3194.3076-2.0546-.38629-2.7128.4819-4.5927.0606-.1309.127-.27541.1963-.4248a12.99866,12.99866,0,0,1,1.3188.44139A34.64289,34.64289,0,0,1,32.12587,29.6586Zm-.81-5.625c.22409-.4659.47119-.961.73869-1.4541.0694.6269.1192,1.23729.1495,1.789C31.92916,24.2474,31.62687,24.138,31.31587,24.0336Zm2.53759,1.288-.2217.8653a20.69464,20.69464,0,0,1-.9517,2.54289,29.314,29.314,0,0,0,.1695-3.123.68075.68075,0,0,0,.6391-.39059c.065-.2227-.645-.56641-.645-.56641a23.73268,23.73268,0,0,0-.1973-3.08939c.1631-.2622.3282-.5171.4966-.7495a13.82369,13.82369,0,0,0-.2119-1.8013,1.3941,1.3941,0,0,0,.3696.0855c.3233.0049.3223-.21731.2188-.3408a4.33708,4.33708,0,0,0-.7349-.48,13.75382,13.75382,0,0,0-3.1821-6.0874,17.16383,17.16383,0,0,1,2.0078.8847,10.74715,10.74715,0,0,1,2.5303,5.6299A13.92159,13.92159,0,0,1,33.85346,25.3216Z"/></svg>