<svg id="Layer_1" data-name="Layer 1" xmlns="http://www.w3.org/2000/svg" viewBox="0 0 190 200"><defs><style>.cls-1{fill:#fff;}</style></defs><path class="cls-1" d="M55.497,26.054v-.733a2.64238,2.64238,0,0,1,2.643-2.642h8.939a2.64173,2.64173,0,0,1,2.643,2.642v.733A2.643,2.643,0,0,1,67.08,28.697H58.14A2.6439,2.6439,0,0,1,55.497,26.054M58.14,50.582A2.6439,2.6439,0,0,1,55.497,47.939v-.733a2.64322,2.64322,0,0,1,2.643-2.643h8.939a2.64324,2.64324,0,0,1,2.643,2.643v.733A2.643,2.643,0,0,1,67.08,50.582ZM88.693,37.782a.77552.77552,0,0,1,0-1.097l5.817-5.814a.2734.2734,0,0,1,.387,0L105.305,41.28a.30609.30609,0,0,0,.432,0l25.092-25.087a.27344.27344,0,0,1,.387,0l5.626,5.625a1.04543,1.04543,0,0,1,0,1.478L106.28,53.852a1.07317,1.07317,0,0,1-1.519,0ZM58.14,72.467a2.64389,2.64389,0,0,1-2.643-2.643v-.733a2.64322,2.64322,0,0,1,2.643-2.643h8.939a2.6432,2.6432,0,0,1,2.643,2.643v.733a2.643,2.643,0,0,1-2.642,2.643Zm53.353,3.282a11.848,11.848,0,0,0,11.848-11.848V53.121a4.8084,4.8084,0,0,1,1.408-3.401l6.878-6.878a.274.274,0,0,1,.468.193V81.112a3.9394,3.9394,0,0,1-3.938,3.939H65.454a3.93875,3.93875,0,0,1-3.938-3.939V78.579a1.73465,1.73465,0,0,1,1.735-1.735h3.558a7.29043,7.29043,0,0,0,7.29-7.291,7.482,7.482,0,0,0-7.481-7.482H61.789a.27272.27272,0,0,1-.273-.273V56.694a1.73465,1.73465,0,0,1,1.735-1.735H66.76a7.33948,7.33948,0,0,0,7.339-7.34A7.433,7.433,0,0,0,66.667,40.186H61.789a.27272.27272,0,0,1-.273-.273V34.809a1.73465,1.73465,0,0,1,1.735-1.735h2.588a7.71354,7.71354,0,0,0,7.713-7.714v-.093A7.51271,7.51271,0,0,0,66.039,17.754h-4.25a.27277.27277,0,0,1-.273-.27307V12.938A3.93787,3.93787,0,0,1,65.454,9h57.77a.502.502,0,0,1,.355.857l-4.998,4.998A9.90345,9.90345,0,0,1,111.58,17.754H78.476a.54732.54732,0,0,0-.547.548V73.493a2.25618,2.25618,0,0,0,2.257,2.256Z"/><path class="cls-1" d="M6,180.111c1.91,2.666,5.372,3.899,8.993,3.899,5.411,0,9.788-3.263,9.788-8.714,0-10.147-13.887-5.889-13.887-13.012,0-1.75,1.274-4.297,5.492-4.297a5.91011,5.91011,0,0,1,5.013,2.467l3.104-2.825c-2.109-2.587-5.054-3.223-8.117-3.223-6.765,0-9.55,4.576-9.55,7.878,0,10.983,13.887,6.964,13.887,13.45,0,3.103-3.104,4.695-5.611,4.695a7.027,7.027,0,0,1-5.968-3.024L6,180.111Zm39.867-15.678H42.285v9.709c0,4.377-2.268,6.287-5.252,6.287-2.268,0-4.297-1.313-4.297-4.855V164.433H29.154v12.136c0,5.014,3.184,7.202,6.844,7.202,2.905,0,5.293-1.392,6.208-3.382h.079v2.905h3.582V164.433Zm5.292,18.861H54.74v-9.47c0-4.139,1.91-6.049,5.411-6.049a6.96883,6.96883,0,0,1,1.751.279l.159-3.86a5.13016,5.13016,0,0,0-1.591-.238,6.37325,6.37325,0,0,0-5.651,3.382H54.74v-2.905H51.159v18.861Zm20.814,0h3.939l7.401-18.861H79.494l-5.412,14.444-5.65-14.444H64.293l7.68,18.861Zm31.407-8.117v-1.274c0-4.854-2.547-9.947-9.192-9.947a9.55693,9.55693,0,0,0-9.748,9.907c0,5.611,3.74,9.908,9.708,9.908a9.87644,9.87644,0,0,0,8.357-3.859l-2.706-2.069a6.50258,6.50258,0,0,1-5.173,2.825c-3.303,0-6.367-2.189-6.367-5.491Zm-15.121-2.865a5.82053,5.82053,0,0,1,5.85-5.492c3.621,0,5.371,2.348,5.451,5.492Zm24.11,11.101-1.154,2.984c-.717,1.871-1.393,3.104-3.661,3.104a5.75536,5.75536,0,0,1-2.149-.438l-.437,3.263a8.61753,8.61753,0,0,0,3.183.518c3.939,0,5.173-2.229,6.446-5.492l8.953-22.919h-3.86l-5.332,14.723h-.079l-5.611-14.723H104.53l7.839,18.98Zm20.711-.119h3.82V155.122h-3.383l-7.838,6.486,2.228,2.666,5.173-4.775v23.795Zm10.457,0H162v-3.343H147.834l9.271-8.953c2.507-2.427,4.895-5.093,4.895-8.793,0-5.173-4.019-7.799-8.874-7.799-4.854,0-8.555,2.347-9.311,7.321l4.139.358a4.95608,4.95608,0,0,1,5.133-4.337c2.666,0,4.854,1.711,4.854,4.497,0,2.307-1.552,4.257-3.104,5.769l-11.3,11.221v4.059Zm21.407-5.65c1.273,4.257,4.775,6.127,9.072,6.127,4.974,0,9.391-2.745,9.391-8.157,0-3.462-1.989-6.486-5.531-7.083v-.079a6.63808,6.63808,0,0,0,4.815-6.367c0-5.212-4.019-7.67895-8.635-7.67895-3.74,0-7.043,1.711-8.51495,5.292l3.9,1.313a5.158,5.158,0,0,1,4.695-3.263c2.706,0,4.735,1.592,4.735,4.576,0,2.785-1.393,4.417-7.202,4.417v3.342c3.581,0,7.918.557,7.918,5.253a5.18732,5.18732,0,0,1-5.451,5.093c-2.984,0-4.258-1.313-5.173-4.019l-4.019,1.234Z"/><path class="cls-1" d="M49.986,143.285h2.971l1.857-4.642h8.939l1.884,4.642h2.971L60.57,124.504H58.262l-8.276,18.781Zm5.73-6.87,3.554-8.622h.053l3.502,8.622Zm14.905,6.87h2.388v-6.313c0-2.759,1.273-4.03295,3.607-4.03295a4.64984,4.64984,0,0,1,1.168.186l.106-2.573a3.4275,3.4275,0,0,0-1.061-.159,4.24636,4.24636,0,0,0-3.767,2.255h-.053v-1.937H70.621v12.574Zm20.198-10.876a6.44687,6.44687,0,0,0-4.828-1.99,6.592,6.592,0,0,0,0,13.184,6.19209,6.19209,0,0,0,4.775-1.936l-1.698-1.698a3.72756,3.72756,0,0,1-3.051,1.406,4.02842,4.02842,0,0,1-4.058-4.271c0-2.361,1.326-4.456,3.926-4.456a3.99545,3.99545,0,0,1,3.13,1.406l1.804-1.645Zm12.231.371v2.388h4.165v5.226a9.92184,9.92184,0,0,1-4.616.981,7.25184,7.25184,0,0,1-7.295-7.481c0-4.111,2.786-7.48,7.083-7.48a7.1196,7.1196,0,0,1,5.2,1.989l1.803-1.936c-1.459-1.512-3.554-2.441-7.003-2.441a9.55682,9.55682,0,0,0-9.788,9.868c0,5.332,3.687,9.869,10.053,9.869a15.22519,15.22519,0,0,0,7.11-1.725V132.78Zm11.052,10.505h2.546V124.504h-2.546v18.781Zm5.578-2.122a7.21173,7.21173,0,0,0,5.995,2.6c3.608,0,6.526-2.176,6.526-5.81,0-6.764-9.258-3.926-9.258-8.674,0-1.167.849-2.865,3.661-2.865a3.93908,3.93908,0,0,1,3.342,1.644l2.069-1.883a6.49494,6.49494,0,0,0-5.411-2.149c-4.51,0-6.367,3.051-6.367,5.253,0,7.321,9.258,4.642,9.258,8.966,0,2.069-2.069,3.13-3.74,3.13a4.686,4.686,0,0,1-3.979-2.016l-2.096,1.804Zm16.166-12.244h.631v-1.41h.462l.859,1.41h.664l-.899-1.459a.87107.87107,0,0,0,.826-.947c0-.664-.389-1.036-1.215-1.036h-1.328v3.442Zm.631-2.909h.462c.389-.008.819.016.819.479,0,.462-.43.486-.819.486h-.462v-.965Zm-2.486,1.208a3.013,3.013,0,1,0,3.013-3.013,3.01731,3.01731,0,0,0-3.013,3.013Zm.534,0a2.479,2.479,0,1,1,2.479,2.479,2.47915,2.47915,0,0,1-2.479-2.479Z"/></svg>