<svg xmlns="http://www.w3.org/2000/svg" viewBox="0 0 192 192"><defs><style>.cls-1{fill:#fff}</style></defs><title>Navigator_for_ArcGIS_192</title><path class="cls-1" d="M140.998 100.478a6.341 6.341 0 0 0 0-8.956L100.48 51.003a6.332 6.332 0 0 0-8.955 0L51.005 91.522a6.333 6.333 0 0 0 0 8.956l40.519 40.519a6.332 6.332 0 0 0 8.956 0zm-38.267 24.833a9.517 9.517 0 0 1-13.459 0l-8.185-8.185a3.802 3.802 0 0 1-1.082-3.17c.956-7.48 7.95-14.037 14.217-14.755a.28.28 0 0 1 .308.234l1.366 8.842a.559.559 0 0 0 .947.31l15.869-15.87a.769.769 0 0 0-.184-1.223l-19.952-10.56a.559.559 0 0 0-.813.58l1.414 9.156c-.47.041-13.39.802-22.87 15.676l-10.22-10.221a1.227 1.227 0 0 1 0-1.736l34.231-34.232a2.381 2.381 0 0 1 3.367 0l34.232 34.232a1.227 1.227 0 0 1 0 1.736z" id="icons"/></svg>