<svg xmlns="http://www.w3.org/2000/svg" viewBox="0 0 32 32"><defs><style>.cls-1{fill:#e66701}</style></defs><title>Navigator_for_ArcGIS_Glyph_32</title><path class="cls-1" d="M31.176 17.498a2.138 2.138 0 0 0 0-3.021L17.51.812a2.135 2.135 0 0 0-3.02 0L.825 14.477a2.136 2.136 0 0 0 0 3.02L14.49 31.163a2.136 2.136 0 0 0 3.02 0zm-12.898 8.437a3.22 3.22 0 0 1-4.554 0l-2.77-2.87a1.286 1.286 0 0 1-.366-1.072 6.665 6.665 0 0 1 5.11-5.092.095.095 0 0 1 .105.08l.462 2.99a.189.189 0 0 0 .32.106l5.37-5.37a.26.26 0 0 0-.063-.414l-6.75-3.572a.189.189 0 0 0-.276.195l.479 3.099a11.49 11.49 0 0 0-8.038 5.504L3.85 16.06a.415.415 0 0 1 0-.587L15.43 3.891a.806.806 0 0 1 1.14 0l11.582 11.582a.415.415 0 0 1 0 .587z" id="icons"/></svg>